M48
; DRILL file {KiCad 9.0.7} date 2026-04-07T23:03:38-0400
; FORMAT={-:-/ absolute / metric / decimal}
; #@! TF.CreationDate,2026-04-07T23:03:38-04:00
; #@! TF.GenerationSoftware,Kicad,Pcbnew,9.0.7
; #@! TF.FileFunction,Plated,1,2,PTH
FMAT,2
METRIC
; #@! TA.AperFunction,Plated,PTH,ViaDrill
T1C0.300
; #@! TA.AperFunction,Plated,PTH,ComponentDrill
T2C1.000
; #@! TA.AperFunction,Plated,PTH,ComponentDrill
T3C1.500
%
G90
G05
T1
X139.0Y-90.0
X144.0Y-95.0
X151.0Y-109.0
X161.0Y-103.0
X161.38Y-57.8
X162.0Y-132.0
X164.27Y-64.73
X168.0Y-57.0
X174.8Y-59.0
X175.4Y-55.8
X181.0Y-93.0
T2
X149.0Y-57.38
X149.0Y-59.92
X149.0Y-62.46
X149.0Y-65.0
X149.0Y-67.54
X149.0Y-70.08
X149.0Y-72.62
X149.0Y-75.16
X161.38Y-60.0
X163.92Y-60.0
X166.46Y-60.0
X169.0Y-60.0
T3
X142.03Y-117.46
X148.38Y-114.92
X161.09Y-117.46
X167.44Y-114.92
X180.14Y-117.46
X186.49Y-114.92
M30
