%TF.GenerationSoftware,KiCad,Pcbnew,9.0.7*%
%TF.CreationDate,2026-04-07T23:03:30-04:00*%
%TF.ProjectId,Accelerometer,41636365-6c65-4726-9f6d-657465722e6b,rev?*%
%TF.SameCoordinates,Original*%
%TF.FileFunction,Profile,NP*%
%FSLAX46Y46*%
G04 Gerber Fmt 4.6, Leading zero omitted, Abs format (unit mm)*
G04 Created by KiCad (PCBNEW 9.0.7) date 2026-04-07 23:03:30*
%MOMM*%
%LPD*%
G01*
G04 APERTURE LIST*
%TA.AperFunction,Profile*%
%ADD10C,0.100000*%
%TD*%
G04 APERTURE END LIST*
D10*
%TO.C,D1*%
X163300002Y-55912842D02*
X163300002Y-54507158D01*
X164205549Y-53710001D02*
X165794454Y-53710001D01*
X165794453Y-56710000D02*
X164205549Y-56710000D01*
X166700000Y-54507158D02*
X166700000Y-55912842D01*
X163250517Y-54290280D02*
G75*
G02*
X163300002Y-54507158I-450505J-216876D01*
G01*
X163250517Y-54290280D02*
G75*
G02*
X163953290Y-53641701I450515J216878D01*
G01*
X163300002Y-55912843D02*
G75*
G02*
X163250517Y-56129720I-499990J-1D01*
G01*
X163953290Y-56778297D02*
G75*
G02*
X163250517Y-56129720I-252258J431700D01*
G01*
X163953291Y-56778299D02*
G75*
G02*
X164205549Y-56710000I252261J-431710D01*
G01*
X164205548Y-53710000D02*
G75*
G02*
X163953290Y-53641701I3J500009D01*
G01*
X165794453Y-56710000D02*
G75*
G02*
X166046712Y-56778299I-3J-500012D01*
G01*
X166046712Y-53641702D02*
G75*
G02*
X165794454Y-53710002I-252262J431710D01*
G01*
X166046712Y-53641702D02*
G75*
G02*
X166749484Y-54290280I252258J-431700D01*
G01*
X166700000Y-54507157D02*
G75*
G02*
X166749479Y-54290277I500000J15D01*
G01*
X166749485Y-56129719D02*
G75*
G02*
X166046712Y-56778299I-450514J-216880D01*
G01*
X166749485Y-56129720D02*
G75*
G02*
X166700000Y-55912842I450515J216878D01*
G01*
%TO.C,D3*%
X163299999Y-136058526D02*
X163299999Y-134652842D01*
X164205546Y-133855684D02*
X165794450Y-133855684D01*
X165794450Y-136855683D02*
X164205545Y-136855683D01*
X166699997Y-134652842D02*
X166699997Y-136058526D01*
X163250514Y-134435964D02*
G75*
G02*
X163299999Y-134652842I-450515J-216878D01*
G01*
X163250514Y-134435965D02*
G75*
G02*
X163953287Y-133787385I450514J216880D01*
G01*
X163299999Y-136058527D02*
G75*
G02*
X163250520Y-136275407I-500000J-15D01*
G01*
X163953287Y-136923982D02*
G75*
G02*
X163250515Y-136275404I-252258J431700D01*
G01*
X163953287Y-136923982D02*
G75*
G02*
X164205545Y-136855682I252262J-431710D01*
G01*
X164205546Y-133855684D02*
G75*
G02*
X163953287Y-133787385I3J500012D01*
G01*
X165794451Y-136855684D02*
G75*
G02*
X166046709Y-136923983I-3J-500009D01*
G01*
X166046708Y-133787385D02*
G75*
G02*
X165794450Y-133855684I-252261J431710D01*
G01*
X166046709Y-133787387D02*
G75*
G02*
X166749482Y-134435964I252258J-431700D01*
G01*
X166699997Y-134652841D02*
G75*
G02*
X166749482Y-134435964I499990J1D01*
G01*
X166749482Y-136275404D02*
G75*
G02*
X166046709Y-136923983I-450515J-216878D01*
G01*
X166749482Y-136275404D02*
G75*
G02*
X166699997Y-136058526I450505J216876D01*
G01*
%TO.C,D2*%
X135300002Y-95600000D02*
X135300002Y-94194316D01*
X136205549Y-93397159D02*
X137794454Y-93397159D01*
X137794453Y-96397158D02*
X136205549Y-96397158D01*
X138700000Y-94194316D02*
X138700000Y-95600000D01*
X135250517Y-93977438D02*
G75*
G02*
X135300002Y-94194316I-450505J-216876D01*
G01*
X135250517Y-93977438D02*
G75*
G02*
X135953290Y-93328859I450515J216878D01*
G01*
X135300002Y-95600001D02*
G75*
G02*
X135250517Y-95816878I-499990J-1D01*
G01*
X135953290Y-96465455D02*
G75*
G02*
X135250517Y-95816878I-252258J431700D01*
G01*
X135953291Y-96465457D02*
G75*
G02*
X136205549Y-96397158I252261J-431710D01*
G01*
X136205548Y-93397158D02*
G75*
G02*
X135953290Y-93328859I3J500009D01*
G01*
X137794453Y-96397158D02*
G75*
G02*
X138046712Y-96465457I-3J-500012D01*
G01*
X138046712Y-93328860D02*
G75*
G02*
X137794454Y-93397160I-252262J431710D01*
G01*
X138046712Y-93328860D02*
G75*
G02*
X138749484Y-93977438I252258J-431700D01*
G01*
X138700000Y-94194315D02*
G75*
G02*
X138749479Y-93977435I500000J15D01*
G01*
X138749485Y-95816877D02*
G75*
G02*
X138046712Y-96465457I-450514J-216880D01*
G01*
X138749485Y-95816878D02*
G75*
G02*
X138700000Y-95600000I450515J216878D01*
G01*
%TO.C,D4*%
X191300000Y-95805684D02*
X191300000Y-94400000D01*
X192205547Y-93602842D02*
X193794451Y-93602842D01*
X193794451Y-96602841D02*
X192205546Y-96602841D01*
X194699998Y-94400000D02*
X194699998Y-95805684D01*
X191250515Y-94183122D02*
G75*
G02*
X191300000Y-94400000I-450515J-216878D01*
G01*
X191250515Y-94183123D02*
G75*
G02*
X191953288Y-93534543I450514J216880D01*
G01*
X191300000Y-95805685D02*
G75*
G02*
X191250521Y-96022565I-500000J-15D01*
G01*
X191953288Y-96671140D02*
G75*
G02*
X191250516Y-96022562I-252258J431700D01*
G01*
X191953288Y-96671140D02*
G75*
G02*
X192205546Y-96602840I252262J-431710D01*
G01*
X192205547Y-93602842D02*
G75*
G02*
X191953288Y-93534543I3J500012D01*
G01*
X193794452Y-96602842D02*
G75*
G02*
X194046710Y-96671141I-3J-500009D01*
G01*
X194046709Y-93534543D02*
G75*
G02*
X193794451Y-93602842I-252261J431710D01*
G01*
X194046710Y-93534545D02*
G75*
G02*
X194749483Y-94183122I252258J-431700D01*
G01*
X194699998Y-94399999D02*
G75*
G02*
X194749483Y-94183122I499990J1D01*
G01*
X194749483Y-96022562D02*
G75*
G02*
X194046710Y-96671141I-450515J-216878D01*
G01*
X194749483Y-96022562D02*
G75*
G02*
X194699998Y-95805684I450505J216876D01*
G01*
%TD*%
M02*
