%TF.GenerationSoftware,KiCad,Pcbnew,9.0.7*%
%TF.CreationDate,2026-04-07T23:03:30-04:00*%
%TF.ProjectId,Accelerometer,41636365-6c65-4726-9f6d-657465722e6b,rev?*%
%TF.SameCoordinates,Original*%
%TF.FileFunction,Copper,L2,Bot*%
%TF.FilePolarity,Positive*%
%FSLAX46Y46*%
G04 Gerber Fmt 4.6, Leading zero omitted, Abs format (unit mm)*
G04 Created by KiCad (PCBNEW 9.0.7) date 2026-04-07 23:03:30*
%MOMM*%
%LPD*%
G01*
G04 APERTURE LIST*
G04 Aperture macros list*
%AMRoundRect*
0 Rectangle with rounded corners*
0 $1 Rounding radius*
0 $2 $3 $4 $5 $6 $7 $8 $9 X,Y pos of 4 corners*
0 Add a 4 corners polygon primitive as box body*
4,1,4,$2,$3,$4,$5,$6,$7,$8,$9,$2,$3,0*
0 Add four circle primitives for the rounded corners*
1,1,$1+$1,$2,$3*
1,1,$1+$1,$4,$5*
1,1,$1+$1,$6,$7*
1,1,$1+$1,$8,$9*
0 Add four rect primitives between the rounded corners*
20,1,$1+$1,$2,$3,$4,$5,0*
20,1,$1+$1,$4,$5,$6,$7,0*
20,1,$1+$1,$6,$7,$8,$9,0*
20,1,$1+$1,$8,$9,$2,$3,0*%
G04 Aperture macros list end*
%TA.AperFunction,ComponentPad*%
%ADD10C,2.200000*%
%TD*%
%TA.AperFunction,SMDPad,CuDef*%
%ADD11RoundRect,0.082000X-0.718000X0.328000X-0.718000X-0.328000X0.718000X-0.328000X0.718000X0.328000X0*%
%TD*%
%TA.AperFunction,ComponentPad*%
%ADD12R,1.700000X1.700000*%
%TD*%
%TA.AperFunction,ComponentPad*%
%ADD13C,1.700000*%
%TD*%
%TA.AperFunction,SMDPad,CuDef*%
%ADD14RoundRect,0.082000X0.718000X-0.328000X0.718000X0.328000X-0.718000X0.328000X-0.718000X-0.328000X0*%
%TD*%
%TA.AperFunction,SMDPad,CuDef*%
%ADD15RoundRect,0.500000X0.875000X0.500000X-0.875000X0.500000X-0.875000X-0.500000X0.875000X-0.500000X0*%
%TD*%
%TA.AperFunction,SMDPad,CuDef*%
%ADD16RoundRect,0.275000X-0.275000X0.975000X-0.275000X-0.975000X0.275000X-0.975000X0.275000X0.975000X0*%
%TD*%
%TA.AperFunction,SMDPad,CuDef*%
%ADD17C,1.700000*%
%TD*%
%TA.AperFunction,ViaPad*%
%ADD18C,0.600000*%
%TD*%
%TA.AperFunction,Conductor*%
%ADD19C,0.200000*%
%TD*%
G04 APERTURE END LIST*
D10*
%TO.P,SW1,1,1*%
%TO.N,GND*%
X148380000Y-114920000D03*
%TO.P,SW1,2,2*%
%TO.N,SW1*%
X142030000Y-117460000D03*
%TD*%
D11*
%TO.P,D1,1,VDD*%
%TO.N,VBUS*%
X162400001Y-54460000D03*
%TO.P,D1,2,DOUT*%
%TO.N,Net-(D1-DOUT)*%
X162400001Y-55960000D03*
%TO.P,D1,3,VSS*%
%TO.N,GND*%
X167600001Y-55960000D03*
%TO.P,D1,4,DIN*%
%TO.N,LEDs*%
X167600001Y-54460000D03*
%TD*%
D10*
%TO.P,SW3,1,1*%
%TO.N,GND*%
X186490000Y-114920000D03*
%TO.P,SW3,2,2*%
%TO.N,SW3*%
X180140000Y-117460000D03*
%TD*%
D12*
%TO.P,J1,1,GND*%
%TO.N,GND*%
X161380000Y-60000000D03*
D13*
%TO.P,J1,2,VDD*%
%TO.N,+3V3*%
X163920000Y-60000000D03*
%TO.P,J1,3,SCL*%
%TO.N,SCL*%
X166460000Y-60000000D03*
%TO.P,J1,4,SDA*%
%TO.N,SDA*%
X169000000Y-60000000D03*
%TD*%
D10*
%TO.P,SW2,1,1*%
%TO.N,GND*%
X167440000Y-114920000D03*
%TO.P,SW2,2,2*%
%TO.N,SW2*%
X161090000Y-117460000D03*
%TD*%
D14*
%TO.P,D3,1,VDD*%
%TO.N,VBUS*%
X167599998Y-136105684D03*
%TO.P,D3,2,DOUT*%
%TO.N,Net-(D3-DOUT)*%
X167599998Y-134605684D03*
%TO.P,D3,3,VSS*%
%TO.N,GND*%
X162399998Y-134605684D03*
%TO.P,D3,4,DIN*%
%TO.N,Net-(D2-DOUT)*%
X162399998Y-136105684D03*
%TD*%
D11*
%TO.P,D2,1,VDD*%
%TO.N,VBUS*%
X134400001Y-94147158D03*
%TO.P,D2,2,DOUT*%
%TO.N,Net-(D2-DOUT)*%
X134400001Y-95647158D03*
%TO.P,D2,3,VSS*%
%TO.N,GND*%
X139600001Y-95647158D03*
%TO.P,D2,4,DIN*%
%TO.N,Net-(D1-DOUT)*%
X139600001Y-94147158D03*
%TD*%
D14*
%TO.P,D4,1,VDD*%
%TO.N,VBUS*%
X195599999Y-95852842D03*
%TO.P,D4,2,DOUT*%
%TO.N,unconnected-(D4-DOUT-Pad2)*%
X195599999Y-94352842D03*
%TO.P,D4,3,VSS*%
%TO.N,GND*%
X190399999Y-94352842D03*
%TO.P,D4,4,DIN*%
%TO.N,Net-(D3-DOUT)*%
X190399999Y-95852842D03*
%TD*%
D15*
%TO.P,U1,1,GPIO26/ADC0/A0*%
%TO.N,SW1*%
X194000000Y-53238000D03*
%TO.P,U1,2,GPIO27/ADC1/A1*%
%TO.N,SW2*%
X194000000Y-55778000D03*
%TO.P,U1,3,GPIO28/ADC2/A2*%
%TO.N,SW3*%
X194000000Y-58318000D03*
%TO.P,U1,4,GPIO29/ADC3/A3*%
%TO.N,LEDs*%
X194000000Y-60858000D03*
%TO.P,U1,5,GPIO6/SDA*%
%TO.N,SDA*%
X194000000Y-63398000D03*
%TO.P,U1,6,GPIO7/SCL*%
%TO.N,SCL*%
X194000000Y-65938000D03*
%TO.P,U1,7,GPIO0/TX*%
%TO.N,unconnected-(U1-GPIO0{slash}TX-Pad7)*%
X194000000Y-68478000D03*
%TO.P,U1,8,GPIO1/RX*%
%TO.N,unconnected-(U1-GPIO1{slash}RX-Pad8)*%
X177835000Y-68478000D03*
%TO.P,U1,9,GPIO2/SCK*%
%TO.N,unconnected-(U1-GPIO2{slash}SCK-Pad9)*%
X177835000Y-65938000D03*
%TO.P,U1,10,GPIO4/MISO*%
%TO.N,unconnected-(U1-GPIO4{slash}MISO-Pad10)*%
X177835000Y-63398000D03*
%TO.P,U1,11,GPIO3/MOSI*%
%TO.N,unconnected-(U1-GPIO3{slash}MOSI-Pad11)*%
X177835000Y-60858000D03*
%TO.P,U1,12,3V3*%
%TO.N,+3V3*%
X177835000Y-58318000D03*
%TO.P,U1,13,GND*%
%TO.N,GND*%
X177835000Y-55778000D03*
%TO.P,U1,14,VBUS*%
%TO.N,VBUS*%
X177835000Y-53238000D03*
D16*
%TO.P,U1,15*%
%TO.N,N/C*%
X187088000Y-69498000D03*
%TO.P,U1,16*%
X184548000Y-69498000D03*
D17*
%TO.P,U1,17*%
X187088000Y-52480000D03*
%TO.P,U1,18*%
X184548000Y-52480000D03*
%TO.P,U1,19*%
X187088000Y-55020000D03*
%TO.P,U1,20*%
X184548000Y-55020000D03*
%TD*%
D12*
%TO.P,J2,1,VCC*%
%TO.N,+3V3*%
X149000000Y-57380000D03*
D13*
%TO.P,J2,2,GND*%
%TO.N,GND*%
X149000000Y-59920000D03*
%TO.P,J2,3,SCL*%
%TO.N,SCL*%
X149000000Y-62460000D03*
%TO.P,J2,4,SDA*%
%TO.N,SDA*%
X149000000Y-65000000D03*
%TO.P,J2,5,XDA*%
%TO.N,unconnected-(J2-XDA-Pad5)*%
X149000000Y-67540000D03*
%TO.P,J2,6,XCL*%
%TO.N,unconnected-(J2-XCL-Pad6)*%
X149000000Y-70080000D03*
%TO.P,J2,7,AD0*%
%TO.N,unconnected-(J2-AD0-Pad7)*%
X149000000Y-72620000D03*
%TO.P,J2,8,INT*%
%TO.N,unconnected-(J2-INT-Pad8)*%
X149000000Y-75160000D03*
%TD*%
D18*
%TO.N,GND*%
X175400000Y-55800000D03*
X162000000Y-132000000D03*
X139000000Y-90000000D03*
X168000000Y-57000000D03*
X161380000Y-57800000D03*
X144000000Y-95000000D03*
%TO.N,+3V3*%
X174800000Y-59000000D03*
%TO.N,SDA*%
X164270000Y-64730000D03*
%TO.N,SW1*%
X151000000Y-109000000D03*
%TO.N,SW2*%
X161000000Y-103000000D03*
%TO.N,SW3*%
X181000000Y-93000000D03*
%TD*%
D19*
%TO.N,*%
X184625000Y-77425000D02*
X184600000Y-77400000D01*
%TO.N,GND*%
X161380000Y-57800000D02*
X161380000Y-60000000D01*
X168000000Y-57000000D02*
X168000000Y-56359999D01*
X167599999Y-115079999D02*
X167440000Y-114920000D01*
X186490000Y-97462841D02*
X186490000Y-114920000D01*
X149000000Y-59920000D02*
X139000000Y-69920000D01*
X139000000Y-69920000D02*
X139000000Y-90000000D01*
X167440000Y-114920000D02*
X148380000Y-114920000D01*
X162399998Y-132399998D02*
X162399998Y-134605684D01*
X139600001Y-95647158D02*
X143352842Y-95647158D01*
X175422000Y-55778000D02*
X175400000Y-55800000D01*
X177835000Y-55778000D02*
X175422000Y-55778000D01*
X162000000Y-132000000D02*
X162399998Y-132399998D01*
X190399999Y-94352842D02*
X189599999Y-94352842D01*
X161380000Y-60000000D02*
X161000000Y-60000000D01*
X143352842Y-95647158D02*
X144000000Y-95000000D01*
X186490000Y-114920000D02*
X167440000Y-114920000D01*
X189599999Y-94352842D02*
X186490000Y-97462841D01*
X168000000Y-56359999D02*
X167600001Y-55960000D01*
X161000000Y-60000000D02*
X160920000Y-59920000D01*
X160920000Y-59920000D02*
X149000000Y-59920000D01*
%TO.N,+3V3*%
X163920000Y-59490057D02*
X163920000Y-60000000D01*
X161628943Y-57199000D02*
X163920000Y-59490057D01*
X177835000Y-58165000D02*
X178000000Y-58000000D01*
X177153000Y-59000000D02*
X174800000Y-59000000D01*
X177835000Y-58318000D02*
X177153000Y-59000000D01*
X149181000Y-57199000D02*
X161628943Y-57199000D01*
X149000000Y-57380000D02*
X149181000Y-57199000D01*
%TO.N,unconnected-(D4-DOUT-Pad2)*%
X195600001Y-94147158D02*
X195689915Y-94147158D01*
%TO.N,Net-(D1-DOUT)*%
X139600001Y-94147158D02*
X139600001Y-91600001D01*
X148118000Y-55960000D02*
X162400001Y-55960000D01*
X139600001Y-91600001D02*
X138399000Y-90399000D01*
X138399000Y-65679000D02*
X148118000Y-55960000D01*
X138399000Y-90399000D02*
X138399000Y-65679000D01*
%TO.N,Net-(D2-DOUT)*%
X162399998Y-136105684D02*
X158620868Y-136105684D01*
X134400001Y-111884817D02*
X134400001Y-95647158D01*
X158620868Y-136105684D02*
X134400001Y-111884817D01*
%TO.N,Net-(D3-DOUT)*%
X172394316Y-134605684D02*
X167599998Y-134605684D01*
X190399999Y-124600001D02*
X188000000Y-127000000D01*
X190399999Y-95852842D02*
X190399999Y-124600001D01*
X180000000Y-127000000D02*
X172394316Y-134605684D01*
X188000000Y-127000000D02*
X180000000Y-127000000D01*
%TO.N,VBUS*%
X132000000Y-126000000D02*
X140400000Y-134400000D01*
X173000000Y-52000000D02*
X174238000Y-53238000D01*
X174238000Y-53238000D02*
X177835000Y-53238000D01*
X167599998Y-136105684D02*
X172105684Y-136105684D01*
X163000000Y-52000000D02*
X135000000Y-52000000D01*
X132000000Y-91747157D02*
X132000000Y-126000000D01*
X135000000Y-52000000D02*
X132000000Y-55000000D01*
X195599999Y-119967101D02*
X195599999Y-95852842D01*
X140400000Y-134400000D02*
X155400000Y-134400000D01*
X162400001Y-54460000D02*
X162400001Y-52599999D01*
X170000000Y-139000000D02*
X172500000Y-136500000D01*
X179400001Y-129599999D02*
X172500000Y-136500000D01*
X132000000Y-91747157D02*
X134400001Y-94147158D01*
X132000000Y-55000000D02*
X132000000Y-91747157D01*
X155400000Y-134400000D02*
X160000000Y-139000000D01*
X160000000Y-139000000D02*
X170000000Y-139000000D01*
X185967101Y-129599999D02*
X195599999Y-119967101D01*
X172105684Y-136105684D02*
X172500000Y-136500000D01*
X162400001Y-52599999D02*
X163000000Y-52000000D01*
X163000000Y-52000000D02*
X173000000Y-52000000D01*
X179400001Y-129599999D02*
X185967101Y-129599999D01*
%TO.N,LEDs*%
X168400001Y-54460000D02*
X167600001Y-54460000D01*
X167973465Y-54743550D02*
X167883551Y-54743550D01*
X176620942Y-69779000D02*
X170151000Y-63309058D01*
X179049058Y-69779000D02*
X176620942Y-69779000D01*
X187970058Y-60858000D02*
X179049058Y-69779000D01*
X170151000Y-56210999D02*
X168400001Y-54460000D01*
X170151000Y-63309058D02*
X170151000Y-56210999D01*
X194000000Y-60858000D02*
X187970058Y-60858000D01*
%TO.N,SCL*%
X181793794Y-70180000D02*
X175437919Y-70180000D01*
X166176450Y-60283550D02*
X164000000Y-62460000D01*
X175437919Y-70180000D02*
X166460000Y-61202081D01*
X186035794Y-65938000D02*
X181793794Y-70180000D01*
X194000000Y-65938000D02*
X186035794Y-65938000D01*
X164000000Y-62460000D02*
X149000000Y-62460000D01*
X166460000Y-61202081D02*
X166460000Y-60000000D01*
%TO.N,SDA*%
X194000000Y-63398000D02*
X195676000Y-65074000D01*
X164000000Y-65000000D02*
X149000000Y-65000000D01*
X195676000Y-65074000D02*
X195676000Y-69317058D01*
X195676000Y-69317058D02*
X193944058Y-71049000D01*
X193944058Y-71049000D02*
X170589000Y-71049000D01*
X164270000Y-64730000D02*
X164000000Y-65000000D01*
X170589000Y-71049000D02*
X164270000Y-64730000D01*
%TO.N,SW1*%
X196879000Y-56117000D02*
X196879000Y-78538043D01*
X194000000Y-53238000D02*
X196879000Y-56117000D01*
X196879000Y-78538043D02*
X166417043Y-109000000D01*
X166417043Y-109000000D02*
X151000000Y-109000000D01*
%TO.N,SW2*%
X196478000Y-58256000D02*
X196478000Y-78371943D01*
X171849943Y-103000000D02*
X161000000Y-103000000D01*
X194000000Y-55778000D02*
X196478000Y-58256000D01*
X196478000Y-78371943D02*
X171849943Y-103000000D01*
%TO.N,SW3*%
X194000000Y-58318000D02*
X196077000Y-60395000D01*
X196077000Y-60395000D02*
X196077000Y-77923000D01*
X196077000Y-77923000D02*
X181000000Y-93000000D01*
%TD*%
M02*
