%TF.GenerationSoftware,KiCad,Pcbnew,9.0.7*%
%TF.CreationDate,2026-04-07T23:03:30-04:00*%
%TF.ProjectId,Accelerometer,41636365-6c65-4726-9f6d-657465722e6b,rev?*%
%TF.SameCoordinates,Original*%
%TF.FileFunction,Legend,Bot*%
%TF.FilePolarity,Positive*%
%FSLAX46Y46*%
G04 Gerber Fmt 4.6, Leading zero omitted, Abs format (unit mm)*
G04 Created by KiCad (PCBNEW 9.0.7) date 2026-04-07 23:03:30*
%MOMM*%
%LPD*%
G01*
G04 APERTURE LIST*
%ADD10C,0.100000*%
%ADD11C,0.106680*%
%ADD12C,0.150000*%
%ADD13C,0.127000*%
%ADD14C,0.504000*%
%ADD15C,0.120000*%
G04 APERTURE END LIST*
D10*
X130000000Y-50000000D02*
X200000000Y-50000000D01*
X200000000Y-140000000D01*
X130000000Y-140000000D01*
X130000000Y-50000000D01*
D11*
X195078549Y-48474391D02*
X195078549Y-49107698D01*
X195078549Y-49107698D02*
X195041296Y-49182204D01*
X195041296Y-49182204D02*
X195004042Y-49219458D01*
X195004042Y-49219458D02*
X194929536Y-49256711D01*
X194929536Y-49256711D02*
X194780522Y-49256711D01*
X194780522Y-49256711D02*
X194706016Y-49219458D01*
X194706016Y-49219458D02*
X194668762Y-49182204D01*
X194668762Y-49182204D02*
X194631509Y-49107698D01*
X194631509Y-49107698D02*
X194631509Y-48474391D01*
X193849189Y-49256711D02*
X194296229Y-49256711D01*
X194072709Y-49256711D02*
X194072709Y-48474391D01*
X194072709Y-48474391D02*
X194147216Y-48586151D01*
X194147216Y-48586151D02*
X194221723Y-48660658D01*
X194221723Y-48660658D02*
X194296229Y-48697911D01*
D12*
X149333333Y-54454819D02*
X149333333Y-55169104D01*
X149333333Y-55169104D02*
X149380952Y-55311961D01*
X149380952Y-55311961D02*
X149476190Y-55407200D01*
X149476190Y-55407200D02*
X149619047Y-55454819D01*
X149619047Y-55454819D02*
X149714285Y-55454819D01*
X148904761Y-54550057D02*
X148857142Y-54502438D01*
X148857142Y-54502438D02*
X148761904Y-54454819D01*
X148761904Y-54454819D02*
X148523809Y-54454819D01*
X148523809Y-54454819D02*
X148428571Y-54502438D01*
X148428571Y-54502438D02*
X148380952Y-54550057D01*
X148380952Y-54550057D02*
X148333333Y-54645295D01*
X148333333Y-54645295D02*
X148333333Y-54740533D01*
X148333333Y-54740533D02*
X148380952Y-54883390D01*
X148380952Y-54883390D02*
X148952380Y-55454819D01*
X148952380Y-55454819D02*
X148333333Y-55454819D01*
D10*
%TO.C,D1*%
X169200001Y-57110000D02*
X168300001Y-57110000D01*
X169200001Y-56210000D01*
X169200001Y-57110000D01*
G36*
X169200001Y-57110000D02*
G01*
X168300001Y-57110000D01*
X169200001Y-56210000D01*
X169200001Y-57110000D01*
G37*
%TO.C,D3*%
X160799998Y-134355684D02*
X160799998Y-133455684D01*
X161699998Y-133455684D01*
X160799998Y-134355684D01*
G36*
X160799998Y-134355684D02*
G01*
X160799998Y-133455684D01*
X161699998Y-133455684D01*
X160799998Y-134355684D01*
G37*
%TO.C,D2*%
X141200001Y-96797158D02*
X140300001Y-96797158D01*
X141200001Y-95897158D01*
X141200001Y-96797158D01*
G36*
X141200001Y-96797158D02*
G01*
X140300001Y-96797158D01*
X141200001Y-95897158D01*
X141200001Y-96797158D01*
G37*
%TO.C,D4*%
X188799999Y-94102842D02*
X188799999Y-93202842D01*
X189699999Y-93202842D01*
X188799999Y-94102842D01*
G36*
X188799999Y-94102842D02*
G01*
X188799999Y-93202842D01*
X189699999Y-93202842D01*
X188799999Y-94102842D01*
G37*
%TO.C,U1*%
X177055000Y-69371000D02*
X177055000Y-52226000D01*
X178960000Y-50321000D02*
X192930000Y-50321000D01*
D13*
X181441000Y-49411000D02*
X181441000Y-50321000D01*
X189936272Y-48911000D02*
X181941000Y-48911000D01*
X190440000Y-50321000D02*
X190436272Y-49410728D01*
D10*
X192930000Y-71276000D02*
X178960000Y-71276000D01*
X194835000Y-69371000D02*
X194835000Y-52226000D01*
X177055000Y-52226000D02*
G75*
G02*
X178960000Y-50321000I1905000J0D01*
G01*
X178960000Y-71276000D02*
G75*
G02*
X177055000Y-69371000I0J1905000D01*
G01*
D13*
X181441000Y-49411000D02*
G75*
G02*
X181941000Y-48911000I500000J0D01*
G01*
X189936272Y-48911000D02*
G75*
G02*
X190436273Y-49410728I-18J-500019D01*
G01*
D10*
X192930000Y-50317000D02*
G75*
G02*
X194835000Y-52222000I-1J-1905001D01*
G01*
X194835000Y-69371000D02*
G75*
G02*
X192930000Y-71276000I-1905001J1D01*
G01*
D14*
X194023000Y-51454000D02*
G75*
G02*
X193519000Y-51454000I-252000J0D01*
G01*
X193519000Y-51454000D02*
G75*
G02*
X194023000Y-51454000I252000J0D01*
G01*
X195297000Y-50737000D02*
G75*
G02*
X194793000Y-50737000I-252000J0D01*
G01*
X194793000Y-50737000D02*
G75*
G02*
X195297000Y-50737000I252000J0D01*
G01*
D15*
%TO.C,J2*%
X147620000Y-58650000D02*
X147620000Y-76540000D01*
X150380000Y-56000000D02*
X149000000Y-56000000D01*
X150380000Y-57380000D02*
X150380000Y-56000000D01*
X150380000Y-58650000D02*
X147620000Y-58650000D01*
X150380000Y-58650000D02*
X150380000Y-76540000D01*
X150380000Y-76540000D02*
X147620000Y-76540000D01*
%TD*%
M02*
